<svg xmlns="http://www.w3.org/2000/svg" width="19.19" height="19.048" viewBox="0 0 19.19 19.048"><defs><style>.a{fill:#e6e7e8;}</style></defs><g transform="translate(0 -0.178)"><path class="a" d="M10.419,1.531,1.631.2A1.417,1.417,0,0,0,.5.507,1.43,1.43,0,0,0,0,1.579V18.426a.8.8,0,0,0,.8.8H3.4v-4.2a1.4,1.4,0,0,1,1.4-1.4h2a1.4,1.4,0,0,1,1.4,1.4v4.2h3.4V2.914a1.4,1.4,0,0,0-1.175-1.383ZM4.4,11.83H3.2a.6.6,0,1,1,0-1.2H4.4a.6.6,0,1,1,0,1.2Zm0-2.4H3.2a.6.6,0,0,1,0-1.2H4.4a.6.6,0,1,1,0,1.2Zm0-2.4H3.2a.6.6,0,0,1,0-1.2H4.4a.6.6,0,1,1,0,1.2Zm0-2.4H3.2a.6.6,0,1,1,0-1.2H4.4a.6.6,0,1,1,0,1.2Zm4,7.2H7.2a.6.6,0,1,1,0-1.2H8.4a.6.6,0,1,1,0,1.2Zm0-2.4H7.2a.6.6,0,1,1,0-1.2H8.4a.6.6,0,1,1,0,1.2Zm0-2.4H7.2a.6.6,0,1,1,0-1.2H8.4a.6.6,0,1,1,0,1.2Zm0-2.4H7.2a.6.6,0,1,1,0-1.2H8.4a.6.6,0,1,1,0,1.2Z" transform="translate(0 0)"/><path class="a" d="M21.193,10.543,15.5,9.351V21.064h5.4a1.4,1.4,0,0,0,1.4-1.4V11.91A1.392,1.392,0,0,0,21.193,10.543Zm-1.9,8.122H18.1a.6.6,0,1,1,0-1.2h1.2a.6.6,0,1,1,0,1.2Zm0-2.4H18.1a.6.6,0,1,1,0-1.2h1.2a.6.6,0,1,1,0,1.2Zm0-2.4H18.1a.6.6,0,1,1,0-1.2h1.2a.6.6,0,1,1,0,1.2Z" transform="translate(-3.106 -1.838)"/></g></svg>