<svg xmlns="http://www.w3.org/2000/svg" width="18" height="18" viewBox="0 0 18 18">
  <g id="Icon-edit" transform="translate(0)">
    <rect id="Frame" width="18" height="18" transform="translate(0)" fill="#474747" opacity="0"/>
    <path id="Shape" d="M16.783,4.1,13.9,1.216a.607.607,0,0,0-.433-.177h-.019a.686.686,0,0,0-.464.2L2.542,11.686a.5.5,0,0,0-.126.211L1.028,16.55c-.057.188.23.425.391.425a.137.137,0,0,0,.031,0c.138-.032,3.933-1.172,4.656-1.389a.49.49,0,0,0,.207-.125L16.756,5.014a.687.687,0,0,0,.2-.442.611.611,0,0,0-.173-.472ZM5.7,14.658c-1.08.325-2.431.733-3.364,1.011l1-3.365Z" fill="#474747"/>
  </g>
</svg>
