<svg xmlns="http://www.w3.org/2000/svg" width="14.282" height="19.069" viewBox="0 0 14.282 19.069"><defs><style>.a{fill:#f99d1c;}</style></defs><g transform="translate(0)"><path class="a" d="M4.189,3.551V0h-.04a.559.559,0,0,0-.395.164L.164,3.754A.559.559,0,0,0,0,4.149v.04H3.551a.639.639,0,0,0,.638-.638Zm0,0"/><path class="a" d="M12.527,0H5.306V3.551A1.757,1.757,0,0,1,3.551,5.306H0V17.314a1.757,1.757,0,0,0,1.755,1.755H12.527a1.755,1.755,0,0,0,1.755-1.755V1.755A1.755,1.755,0,0,0,12.527,0Zm-.739,12.847L9.693,15.839a.559.559,0,1,1-.915-.641l1.858-2.654L7.7,8.769v2.094a1.755,1.755,0,1,1-1.117,0V8.769L3.647,12.544,5.5,15.2a.559.559,0,0,1-.915.641L2.495,12.847a.559.559,0,0,1,.017-.663L6.7,6.8a.559.559,0,0,1,.882,0l4.189,5.385a.558.558,0,0,1,.017.663Zm0,0" transform="translate(0)"/><path class="a" d="M175.239,319.2a.638.638,0,1,0,.638.638A.639.639,0,0,0,175.239,319.2Zm0,0" transform="translate(-168.098 -307.311)"/></g></svg>