<svg xmlns="http://www.w3.org/2000/svg" width="17.329" height="17.329" viewBox="0 0 17.329 17.329"><defs><style>.a{fill:#e6e7e8;}</style></defs><path class="a" d="M15.754,0H1.575A1.577,1.577,0,0,0,0,1.575V15.754a1.577,1.577,0,0,0,1.575,1.575H15.754a1.577,1.577,0,0,0,1.575-1.575V1.575A1.577,1.577,0,0,0,15.754,0ZM5.514,6.7a.394.394,0,0,1-.394.394H4.726a.394.394,0,0,0-.394.394v7.089a.394.394,0,1,1-.788,0V7.483a.394.394,0,0,0-.394-.394H2.757A.394.394,0,0,1,2.363,6.7V5.12a.394.394,0,0,1,.394-.394h.394a.394.394,0,0,0,.394-.394V2.757a.394.394,0,1,1,.788,0V4.332a.394.394,0,0,0,.394.394H5.12a.394.394,0,0,1,.394.394V6.7Zm4.726,4.726a.394.394,0,0,1-.394.394H9.452a.394.394,0,0,0-.394.394v2.363a.394.394,0,1,1-.788,0V12.209a.394.394,0,0,0-.394-.394H7.483a.394.394,0,0,1-.394-.394V9.846a.394.394,0,0,1,.394-.394h.394a.394.394,0,0,0,.394-.394v-6.3a.394.394,0,0,1,.788,0v6.3a.394.394,0,0,0,.394.394h.394a.394.394,0,0,1,.394.394v1.575Zm4.726-3.938a.394.394,0,0,1-.394.394h-.394a.394.394,0,0,0-.394.394v6.3a.394.394,0,1,1-.788,0v-6.3a.394.394,0,0,0-.394-.394h-.394a.394.394,0,0,1-.394-.394V5.908a.394.394,0,0,1,.394-.394H12.6A.394.394,0,0,0,13,5.12V2.757a.394.394,0,0,1,.788,0V5.12a.394.394,0,0,0,.394.394h.394a.394.394,0,0,1,.394.394V7.483Z" transform="translate(0 0)"/></svg>