<svg xmlns="http://www.w3.org/2000/svg" width="14.28" height="19.07" viewBox="0 0 14.28 19.07"><defs><style>.a{fill:#f99d1c;}</style></defs><g transform="translate(0)"><path class="a" d="M4.186,3.548V0h-.04a.558.558,0,0,0-.395.164L.164,3.751A.558.558,0,0,0,0,4.146v.04H3.548a.638.638,0,0,0,.638-.638Zm0,0" transform="translate(0)"/><path class="a" d="M110.336,270.8l2.471,1.648v-2.844l-2.471-1.647Zm0,0" transform="translate(-106.226 -257.978)"/><path class="a" d="M124.956,193.695l-2.581,1.721,2.581,1.721,2.581-1.721Zm0,0" transform="translate(-117.816 -186.479)"/><path class="a" d="M206.734,272.453l2.471-1.648v-2.844l-2.471,1.647Zm0,0" transform="translate(-199.034 -257.978)"/><path class="a" d="M12.525,0H5.306V3.551A1.757,1.757,0,0,1,3.551,5.306H0V17.314A1.757,1.757,0,0,0,1.755,19.07h10.77a1.755,1.755,0,0,0,1.755-1.756V1.756A1.755,1.755,0,0,0,12.525,0ZM11.289,13.125a.558.558,0,0,1-.249.465L7.45,15.984a.559.559,0,0,1-.62,0L3.241,13.59a.559.559,0,0,1-.249-.465V8.937a.559.559,0,0,1,.249-.465L6.83,6.078a.558.558,0,0,1,.62,0l3.59,2.394a.558.558,0,0,1,.249.465Zm0,0" transform="translate(0)"/></g></svg>