<svg xmlns="http://www.w3.org/2000/svg" width="13.366" height="17.822" viewBox="0 0 13.366 17.822">
  <path id="Icon_awesome-clipboard-check" data-name="Icon awesome-clipboard-check" d="M11.7,2.228H8.911a2.228,2.228,0,0,0-4.455,0H1.671A1.671,1.671,0,0,0,0,3.9V16.151a1.671,1.671,0,0,0,1.671,1.671H11.7a1.671,1.671,0,0,0,1.671-1.671V3.9A1.671,1.671,0,0,0,11.7,2.228ZM6.683,1.392a.835.835,0,1,1-.835.835A.833.833,0,0,1,6.683,1.392ZM10.9,9.461,5.924,14.4a.418.418,0,0,1-.592,0l-2.875-2.9a.418.418,0,0,1,0-.592l.989-.982a.418.418,0,0,1,.592,0l1.6,1.615,3.69-3.662a.418.418,0,0,1,.592,0l.982.989A.418.418,0,0,1,10.9,9.461Z" fill="#268e6c"/>
</svg>
