<svg xmlns="http://www.w3.org/2000/svg" width="61" height="62" viewBox="0 0 61 62"><defs><style>.a{fill:#9d9fa2;}.b{fill:#fff;}</style></defs><g transform="translate(-1.5 -1)"><path class="a" d="M59.5,13h-28a3,3,0,0,0-3,3v3h25a3,3,0,0,1,3,3V55h3a3,3,0,0,0,3-3V16A3,3,0,0,0,59.5,13Z"/><path class="a" d="M53.5,21h-30a3,3,0,0,0-3,3V60a3,3,0,0,0,3,3h28a3,3,0,0,0,3-3V22A1,1,0,0,0,53.5,21Zm-5,34h-22a1,1,0,0,1,0-2h22a1,1,0,0,1,0,2Zm0-8h-22a1,1,0,0,1,0-2h22a1,1,0,0,1,0,2Zm0-8h-22a1,1,0,0,1,0-2h22a1,1,0,0,1,0,2Zm0-8h-22a1,1,0,0,1,0-2h22a1,1,0,0,1,0,2Z"/><path class="b" d="M36.5,1H4.5a3,3,0,0,0-3,3V48a3,3,0,0,0,3,3h32a3,3,0,0,0,3-3V4A3,3,0,0,0,36.5,1ZM4.5,3h32a1,1,0,0,1,1,1V5.723l-5.275,8.792a1,1,0,0,1-.857.485H24.5V9a4,4,0,0,0-8,0v6H9.632a1,1,0,0,1-.857-.485L3.5,5.723V4a1,1,0,0,1,1-1Zm18,16.556a3.875,3.875,0,0,0-4,0V17h4ZM22.5,23a2,2,0,1,1-2-2A2,2,0,0,1,22.5,23Zm-4-8V12.444a3.875,3.875,0,0,0,4,0V15Zm0-6a2,2,0,1,1,2,2A2,2,0,0,1,18.5,9Zm18,40H4.5a1,1,0,0,1-1-1V9.61l3.56,5.934A3.014,3.014,0,0,0,9.632,17H16.5v6a4,4,0,0,0,8,0V17h6.868a3.014,3.014,0,0,0,2.572-1.456L37.5,9.611V48A1,1,0,0,1,36.5,49Z"/></g></svg>