<svg id="family" xmlns="http://www.w3.org/2000/svg" width="18.945" height="18.945" viewBox="0 0 18.945 18.945">
  <path id="Caminho_37462" data-name="Caminho 37462" d="M351.628,246.255a2.128,2.128,0,1,1,2.128-2.128A2.13,2.13,0,0,1,351.628,246.255Z" transform="translate(-336.568 -233.046)" fill="#f99d1c"/>
  <path id="Caminho_37463" data-name="Caminho 37463" d="M49.628,246.255a2.128,2.128,0,1,1,2.128-2.128A2.13,2.13,0,0,1,49.628,246.255Z" transform="translate(-45.742 -233.046)" fill="#f99d1c"/>
  <path id="Caminho_37464" data-name="Caminho 37464" d="M148.955,1.48A1.83,1.83,0,0,1,147.31.463l-.078-.156a.555.555,0,0,0-.5-.307h-2.96a.555.555,0,0,0-.5.307L143.2.463a1.83,1.83,0,0,1-1.645,1.017.555.555,0,0,0-.555.555V5.2a5.747,5.747,0,0,0,4.1,5.5.555.555,0,0,0,.319,0,5.747,5.747,0,0,0,4.1-5.5V2.035A.555.555,0,0,0,148.955,1.48Zm-1.738,3.231L145.124,6.8a.555.555,0,0,1-.785,0l-1.047-1.047a.555.555,0,0,1,.785-.785l.654.654,1.7-1.7a.555.555,0,1,1,.785.785Z" transform="translate(-135.783 0)" fill="#f99d1c"/>
  <g id="Grupo_152015" data-name="Grupo 152015" transform="translate(0 13.386)">
    <g id="Grupo_152014" data-name="Grupo 152014">
      <path id="Caminho_37465" data-name="Caminho 37465" d="M328.809,361.762a3.232,3.232,0,0,1-4.542,0,3.892,3.892,0,0,0-.819.8l.3.267a4.256,4.256,0,0,1,1.454,3.2v1.3h4.662a.555.555,0,0,0,.555-.555v-1.85A3.882,3.882,0,0,0,328.809,361.762Z" transform="translate(-311.48 -361.759)" fill="#f99d1c"/>
      <path id="Caminho_37466" data-name="Caminho 37466" d="M1.615,361.762A3.883,3.883,0,0,0,0,364.913v1.85a.555.555,0,0,0,.555.555H5.217v-1.3a4.256,4.256,0,0,1,1.455-3.2l.3-.267a3.89,3.89,0,0,0-.819-.8,3.232,3.232,0,0,1-4.542,0Z" transform="translate(0 -361.759)" fill="#f99d1c"/>
    </g>
    <path id="Caminho_37467" data-name="Caminho 37467" d="M176.214,413.07a2.861,2.861,0,0,1-4.139,0A3.138,3.138,0,0,0,171,415.435v1.3h6.29v-1.3A3.138,3.138,0,0,0,176.214,413.07Z" transform="translate(-164.673 -411.171)" fill="#f99d1c"/>
  </g>
  <path id="Caminho_37468" data-name="Caminho 37468" d="M210.258,315.515a1.758,1.758,0,1,1,1.758-1.758A1.759,1.759,0,0,1,210.258,315.515Z" transform="translate(-200.785 -300.456)" fill="#f99d1c"/>
</svg>
