<svg xmlns="http://www.w3.org/2000/svg" width="16.398" height="20.885" viewBox="0 0 16.398 20.885"><defs><style>.a{fill:#e6e7e8;}</style></defs><g transform="translate(0 0)"><path class="a" d="M14.465,16.578H11.449a2.294,2.294,0,0,1,.082.609v.005A2.308,2.308,0,0,1,9.226,19.5H7.172a2.308,2.308,0,0,1-2.305-2.305v-.005a2.294,2.294,0,0,1,.082-.609H1.933A1.934,1.934,0,0,0,0,18.509V34.856a1.934,1.934,0,0,0,1.933,1.931H14.465A1.934,1.934,0,0,0,16.4,34.856V18.509a1.934,1.934,0,0,0-1.933-1.931ZM5.719,32.008,4.3,33.423a.855.855,0,0,1-1.208,0L2.475,32.8a.612.612,0,0,1,.865-.865l.36.36,1.153-1.153a.612.612,0,1,1,.865.865Zm0-4.418L4.3,29a.855.855,0,0,1-1.208,0l-.622-.622a.612.612,0,0,1,.865-.865l.36.36,1.153-1.153a.612.612,0,1,1,.865.865Zm0-4.6L4.3,24.409a.855.855,0,0,1-1.208,0l-.622-.622a.612.612,0,1,1,.865-.865l.36.36,1.153-1.153a.612.612,0,1,1,.865.865Zm7.573,10.059H7.357a.612.612,0,1,1,0-1.224h5.934a.612.612,0,1,1,0,1.224Zm0-4.418H7.357a.612.612,0,1,1,0-1.224h5.934a.612.612,0,0,1,0,1.224Zm0-4.6H7.357a.612.612,0,1,1,0-1.224h5.934a.612.612,0,1,1,0,1.224Zm0,0" transform="translate(0 -15.902)"/><path class="a" d="M145.593,2.576h2.055a1.285,1.285,0,0,0,1.285-1.285V1.285A1.285,1.285,0,0,0,147.648,0h-2.055a1.285,1.285,0,0,0-1.285,1.285v.005A1.285,1.285,0,0,0,145.593,2.576Zm0,0" transform="translate(-138.422)"/></g></svg>