<svg xmlns="http://www.w3.org/2000/svg" width="12.557" height="16.742" viewBox="0 0 12.557 16.742">
  <path id="Icon_awesome-file-import" data-name="Icon awesome-file-import" d="M3.895,11.51v0ZM16.222,3.433l-3.2-3.2A.784.784,0,0,0,12.465,0h-.2V4.186h4.186v-.2A.782.782,0,0,0,16.222,3.433Zm-5,1.014V0H4.679a.783.783,0,0,0-.785.785V9.417H8.08V7.285a.524.524,0,0,1,.9-.37L12.1,10.071a.557.557,0,0,1,0,.785L8.973,14.009a.524.524,0,0,1-.9-.37V11.51H3.895v4.447a.783.783,0,0,0,.785.785H15.667a.783.783,0,0,0,.785-.785V5.232H12A.787.787,0,0,1,11.219,4.447Z" transform="translate(-3.895)"/>
</svg>
