<svg xmlns="http://www.w3.org/2000/svg" width="22.659" height="21.243" viewBox="0 0 22.659 21.243"><defs><style>.a{fill:#fff;}</style></defs><g transform="translate(0 -16)"><g transform="translate(10.599 21.275)"><path class="a" d="M241.731,136a.731.731,0,1,0,.731.731A.732.732,0,0,0,241.731,136Z" transform="translate(-241 -136)"/></g><g transform="translate(0 16)"><path class="a" d="M22,31.932H20v-.664a1.994,1.994,0,0,0-1.992-1.992H11.994V27.949h.664a.663.663,0,0,0,.664-.664V26.156a4.6,4.6,0,0,0,.633-.367l.979.566a.664.664,0,0,0,.907-.243l1.328-2.3a.664.664,0,0,0-.243-.907l-.965-.558c.011-.123.018-.247.018-.373s-.006-.25-.018-.373l.965-.558a.664.664,0,0,0,.243-.907l-1.328-2.3a.664.664,0,0,0-.907-.243l-.979.566a4.6,4.6,0,0,0-.633-.367V16.664A.663.663,0,0,0,12.657,16H10a.663.663,0,0,0-.664.664v1.129a4.6,4.6,0,0,0-.633.367l-.979-.566a.664.664,0,0,0-.907.243l-1.328,2.3a.664.664,0,0,0,.243.907L6.7,21.6c-.011.123-.018.247-.018.373s.006.25.018.373l-.965.558a.664.664,0,0,0-.243.907l1.328,2.3a.664.664,0,0,0,.907.243l.979-.566a4.6,4.6,0,0,0,.633.367v1.129a.663.663,0,0,0,.664.664h.664v1.328H4.647a1.994,1.994,0,0,0-1.992,1.992v.664H.664A.663.663,0,0,0,0,32.6v3.983a.663.663,0,0,0,.664.664H5.975a.663.663,0,0,0,.664-.664V32.6a.663.663,0,0,0-.664-.664H3.983v-.664a.664.664,0,0,1,.664-.664h6.019v1.328H8.674a.663.663,0,0,0-.664.664v3.983a.663.663,0,0,0,.664.664h5.311a.663.663,0,0,0,.664-.664V32.6a.663.663,0,0,0-.664-.664H11.994V30.6h6.019a.664.664,0,0,1,.664.664v.664H16.685a.663.663,0,0,0-.664.664v3.983a.663.663,0,0,0,.664.664H22a.663.663,0,0,0,.664-.664V32.6A.663.663,0,0,0,22,31.932ZM11.33,23.966a1.992,1.992,0,1,1,1.992-1.992A1.994,1.994,0,0,1,11.33,23.966Z" transform="translate(0 -16)"/></g></g></svg>