<svg xmlns="http://www.w3.org/2000/svg" width="20.352" height="17.264" viewBox="0 0 20.352 17.264"><defs><style>.a{fill:#e6e7e8;}</style></defs><g transform="translate(0 -38.84)"><g transform="translate(15.84 48.161)"><g transform="translate(0 0)"><path class="a" d="M400.068,273.32h-1.574a4.094,4.094,0,0,1,.248,1.407v5.949a1.754,1.754,0,0,1-.1.588h2.6a1.765,1.765,0,0,0,1.763-1.763v-3.243A2.941,2.941,0,0,0,400.068,273.32Z" transform="translate(-398.494 -273.32)"/></g></g><g transform="translate(0 48.161)"><g transform="translate(0 0)"><path class="a" d="M4.264,274.728a4.094,4.094,0,0,1,.248-1.407H2.938A2.941,2.941,0,0,0,0,276.259V279.5a1.765,1.765,0,0,0,1.763,1.763h2.6a1.755,1.755,0,0,1-.1-.588Z" transform="translate(0 -273.321)"/></g></g><g transform="translate(5.439 46.63)"><g transform="translate(0 0)"><path class="a" d="M143.365,234.815h-3.6a2.941,2.941,0,0,0-2.938,2.938V243.7a.588.588,0,0,0,.588.588h8.3a.588.588,0,0,0,.588-.588v-5.949A2.941,2.941,0,0,0,143.365,234.815Z" transform="translate(-136.829 -234.815)"/></g></g><g transform="translate(6.643 38.84)"><g transform="translate(0 0)"><path class="a" d="M170.647,38.84a3.533,3.533,0,1,0,3.533,3.533A3.537,3.537,0,0,0,170.647,38.84Z" transform="translate(-167.114 -38.84)"/></g></g><g transform="translate(1.329 42.133)"><path class="a" d="M36.085,121.689a2.641,2.641,0,1,0,2.642,2.642A2.645,2.645,0,0,0,36.085,121.689Z" transform="translate(-33.443 -121.689)"/></g><g transform="translate(13.738 42.133)"><path class="a" d="M348.249,121.689a2.642,2.642,0,1,0,2.642,2.642A2.645,2.645,0,0,0,348.249,121.689Z" transform="translate(-345.607 -121.689)"/></g></g></svg>