<svg xmlns="http://www.w3.org/2000/svg" xmlns:xlink="http://www.w3.org/1999/xlink" width="62" height="65" viewBox="0 0 62 65"><defs><style>.a{fill:#e3711e;}.b{clip-path:url(#a);}.c{fill:#fff;opacity:0.7;}.d{fill:#474747;}</style><clipPath id="a"><rect class="a" width="62" height="65" rx="8"/></clipPath></defs><g class="b"><g transform="translate(0 1.321)"><path class="c" d="M41.6,63.606a3.014,3.014,0,0,0,2.549-.849L68.885,38.023a2.981,2.981,0,0,0,.88-2.124V22.713a3,3,0,0,0-3-3H53.6a3.017,3.017,0,0,0-2.163.92L26,47.046a1,1,0,0,0-.268.847l1.548,10.059L58.631,26.6a1,1,0,1,1,1.416,1.416L20,68.056a1,1,0,0,0,.708,1.709H64.759a5.005,5.005,0,1,0,0-10.011h-3a3,3,0,1,1,0-6.007h7.008a1,1,0,1,0,0-2H61.756a5.005,5.005,0,0,0,0,10.011h3a3,3,0,0,1,0,6.007H23.128l5.946-5.946Z" transform="translate(-7.697 -7.697)"/><path class="d" d="M42.561,45.564h-1v-1a3,3,0,0,0-3-3V11.527a3,3,0,0,0,3-3v-1h1a1,1,0,1,0,0-2h-1v-1a3,3,0,0,0-3-3H6.522a3,3,0,0,0-3,3v1h-1a1,1,0,0,0,0,2h1v1a3,3,0,0,0,3,3V41.56a3,3,0,0,0-3,3v1h-1a1,1,0,1,0,0,2h1v1a3,3,0,0,0,3,3H38.557a3,3,0,0,0,3-3v-1h1a1,1,0,1,0,0-2ZM5.521,8.524v-4a1,1,0,0,1,1-1H38.557a1,1,0,0,1,1,1v4a1,1,0,0,1-1,1H6.522A1,1,0,0,1,5.521,8.524Zm3,3H36.554V41.56H8.524Zm31.034,37.04a1,1,0,0,1-1,1H6.522a1,1,0,0,1-1-1v-4a1,1,0,0,1,1-1H38.557a1,1,0,0,1,1,1Z" transform="translate(-1.516 -1.516)"/><path class="d" d="M37.7,25.774H17.679a1,1,0,1,0,0,2H37.7a1,1,0,0,0,0-2Z" transform="translate(-6.666 -9.757)"/><path class="d" d="M37.7,37.9H17.679a1,1,0,1,0,0,2H37.7a1,1,0,1,0,0-2Z" transform="translate(-6.666 -13.877)"/><path class="d" d="M37.7,50.032H17.679a1,1,0,1,0,0,2H37.7a1,1,0,1,0,0-2Z" transform="translate(-6.666 -17.997)"/></g></g></svg>