<svg xmlns="http://www.w3.org/2000/svg" width="14.282" height="19.069" viewBox="0 0 14.282 19.069"><defs><style>.a{fill:#f99d1c;}.b{fill:#474747;}</style></defs><g transform="translate(0.3)"><path class="a" d="M4.189,3.551V0h-.04a.559.559,0,0,0-.395.164L.164,3.754A.559.559,0,0,0,0,4.149v.04H3.551a.639.639,0,0,0,.638-.638Zm0,0"/><path class="a" d="M12.527,0H5.306V3.551A1.757,1.757,0,0,1,3.551,5.306H0V17.314a1.757,1.757,0,0,0,1.755,1.755H12.527a1.755,1.755,0,0,0,1.755-1.755V1.755A1.755,1.755,0,0,0,12.527,0Z" transform="translate(-0.3)"/><path class="a" d="M175.239,319.2a.638.638,0,1,0,.638.638A.639.639,0,0,0,175.239,319.2Zm0,0" transform="translate(-168.098 -307.311)"/><g transform="translate(2.7 0.559)"><path class="b" d="M65.127,6.984a.518.518,0,0,0-.7.227l-3.853,7.579a.518.518,0,1,0,.924.47l3.853-7.579A.518.518,0,0,0,65.127,6.984Z" transform="translate(-58.43 0)"/><path class="b" d="M3.93,25.893a1.965,1.965,0,1,0-1.965,1.965A1.967,1.967,0,0,0,3.93,25.893Zm-1.965.929a.929.929,0,1,1,.929-.929A.93.93,0,0,1,1.965,26.822Z" transform="translate(0 -16.413)"/><path class="b" d="M151.471,125.58a1.965,1.965,0,1,0,1.965,1.965A1.967,1.967,0,0,0,151.471,125.58Zm0,2.894a.929.929,0,1,1,.929-.929A.93.93,0,0,1,151.471,128.474Z" transform="translate(-144.342 -114.554)"/></g></g></svg>