<svg xmlns="http://www.w3.org/2000/svg" width="62" height="62" viewBox="0 0 62 62"><defs><style>.a{fill:#fff;opacity:0.7;}.b{fill:#323232;}</style></defs><g transform="translate(-1 -1)"><path class="a" d="M55,21.586V29h7.414Z"/><path class="a" d="M54,31a1,1,0,0,1-1-1V21H32a3,3,0,0,0-3,3V60a3,3,0,0,0,3,3H60a3,3,0,0,0,3-3V31ZM35,29H47a1,1,0,0,1,0,2H35a1,1,0,0,1,0-2ZM57,55H35a1,1,0,0,1,0-2H57a1,1,0,0,1,0,2Zm0-8H35a1,1,0,0,1,0-2H57a1,1,0,0,1,0,2Zm0-8H35a1,1,0,0,1,0-2H57a1,1,0,0,1,0,2Z"/><path class="b" d="M41.471,19.882,38,13.375V11a3,3,0,0,0-3-3H34V4a3,3,0,0,0-3-3H13a3,3,0,0,0-3,3V8H9a3,3,0,0,0-3,3v2.375L2.529,19.882A13.056,13.056,0,0,0,1,26V39a3,3,0,0,0,3,3H40a3,3,0,0,0,3-3V26a13.056,13.056,0,0,0-1.529-6.118ZM38,17.625l1.706,3.2A10.931,10.931,0,0,1,40.565,23H38ZM12,4a1,1,0,0,1,1-1H31a1,1,0,0,1,1,1V8H12ZM8,11a1,1,0,0,1,1-1H35a1,1,0,0,1,1,1V23H30a1,1,0,0,0-.707.293L26.586,26h-9.15L14.7,23.29A1,1,0,0,0,14,23H8ZM6,17.625V23H3.435a10.931,10.931,0,0,1,.859-2.177ZM41,39a1,1,0,0,1-1,1H4a1,1,0,0,1-1-1V26a1,1,0,0,1,1-1h9.588l2.732,2.71a1,1,0,0,0,.7.29H27a1,1,0,0,0,.707-.293L30.414,25H40a1,1,0,0,1,1,1Z"/><path class="b" d="M26,33H18a1,1,0,0,0,0,2h8a1,1,0,0,0,0-2Z"/></g></svg>