<svg id="hands" xmlns="http://www.w3.org/2000/svg" width="18.12" height="18.12" viewBox="0 0 18.12 18.12">
  <path id="Caminho_37459" data-name="Caminho 37459" d="M148.053,8.257a5.458,5.458,0,0,0,1.087-3.281V1.946a.531.531,0,0,0-.531-.531,1.75,1.75,0,0,1-1.574-.973L146.96.293A.531.531,0,0,0,146.485,0h-2.831a.531.531,0,0,0-.475.293L143.1.443a1.75,1.75,0,0,1-1.574.973.531.531,0,0,0-.531.531V4.976a5.5,5.5,0,0,0,3.917,5.265.531.531,0,0,0,.305,0A5.458,5.458,0,0,0,148.053,8.257Zm-1.106-3.751-2,2a.531.531,0,0,1-.751,0l-1-1a.531.531,0,1,1,.751-.751l.626.626L146.2,3.755a.531.531,0,1,1,.751.751Z" transform="translate(-136.01 0)" fill="#f99d1c"/>
  <path id="Caminho_37460" data-name="Caminho 37460" d="M283.28,137a1.076,1.076,0,0,0-1.032,1.083v4.4l-2.006,3.45a.535.535,0,0,1-.924-.537l1.4-2.405a1.275,1.275,0,0,0-2.169-1.338l-2,3.041a3.185,3.185,0,0,0-.524,1.75v3.293a.531.531,0,0,0,.531.531h5.52a.531.531,0,0,0,.531-.531v-1.946l1.769-4.247v-5.485A1.062,1.062,0,0,0,283.28,137Z" transform="translate(-266.252 -132.151)" fill="#f99d1c"/>
  <path id="Caminho_37461" data-name="Caminho 37461" d="M5.827,141.655a1.275,1.275,0,0,0-2.169,1.338l1.4,2.405a.535.535,0,0,1-.924.537l-2.007-3.45v-4.4A1.076,1.076,0,0,0,1.092,137,1.062,1.062,0,0,0,0,138.061v5.485l1.769,4.247v1.946a.531.531,0,0,0,.531.531H7.82a.531.531,0,0,0,.531-.531v-3.293a3.185,3.185,0,0,0-.524-1.75Z" transform="translate(0 -132.151)" fill="#f99d1c"/>
</svg>
