<svg xmlns="http://www.w3.org/2000/svg" width="17.543" height="19.137" viewBox="0 0 17.543 19.137"><defs><style>.a{fill:#e6e7e8;}</style></defs><path class="a" d="M114.413,9.569a4.61,4.61,0,0,0,3.383-1.4,4.609,4.609,0,0,0,1.4-3.383A4.61,4.61,0,0,0,117.8,1.4a4.783,4.783,0,0,0-6.766,0,4.61,4.61,0,0,0-1.4,3.383,4.609,4.609,0,0,0,1.4,3.383A4.61,4.61,0,0,0,114.413,9.569Z" transform="translate(-105.642)"/><path class="a" d="M35.767,206.842a12.757,12.757,0,0,0-.174-1.358,10.565,10.565,0,0,0-.33-1.352,6.412,6.412,0,0,0-.536-1.215,4.376,4.376,0,0,0-.773-1.009,3.253,3.253,0,0,0-1.065-.666,3.745,3.745,0,0,0-1.389-.249,1.523,1.523,0,0,0-.523.268q-.411.268-.928.6a5.894,5.894,0,0,1-1.346.6,5.3,5.3,0,0,1-3.327,0,5.893,5.893,0,0,1-1.346-.6q-.517-.33-.928-.6a1.523,1.523,0,0,0-.523-.268,3.743,3.743,0,0,0-1.389.249,3.252,3.252,0,0,0-1.065.666,4.381,4.381,0,0,0-.772,1.009,6.421,6.421,0,0,0-.536,1.215,10.565,10.565,0,0,0-.33,1.352,12.681,12.681,0,0,0-.175,1.358q-.044.629-.044,1.29a3.106,3.106,0,0,0,.91,2.361,3.361,3.361,0,0,0,2.417.866h10.89a3.361,3.361,0,0,0,2.417-.866,3.1,3.1,0,0,0,.91-2.361Q35.811,207.471,35.767,206.842Z" transform="translate(-18.268 -192.221)"/></svg>