<svg xmlns="http://www.w3.org/2000/svg" width="17.952" height="17.952" viewBox="0 0 17.952 17.952">
  <path id="Icon_awesome-plus" data-name="Icon awesome-plus" d="M16.67,9.3H10.9V3.532A1.282,1.282,0,0,0,9.617,2.25H8.335A1.282,1.282,0,0,0,7.053,3.532V9.3H1.282A1.282,1.282,0,0,0,0,10.585v1.282A1.282,1.282,0,0,0,1.282,13.15h5.77v5.77A1.282,1.282,0,0,0,8.335,20.2H9.617A1.282,1.282,0,0,0,10.9,18.92V13.15h5.77a1.282,1.282,0,0,0,1.282-1.282V10.585A1.282,1.282,0,0,0,16.67,9.3Z" transform="translate(0 -2.25)" fill="#e6e7e8"/>
</svg>
