<svg xmlns="http://www.w3.org/2000/svg" width="62" height="62.001" viewBox="0 0 62 62.001"><defs><style>.a{fill:#9d9fa2;}.b{fill:#fff;}</style></defs><g transform="translate(12 16)"><path class="a" d="M53,25H63v4H53Z" transform="translate(-13 -17)"/><path class="a" d="M59,31h4V53H59Z" transform="translate(-13 -17)"/><path class="a" d="M53,31h4V53H53Z" transform="translate(-13 -17)"/><path class="a" d="M58,17a5.006,5.006,0,0,0-5,5v1H63V22A5.006,5.006,0,0,0,58,17Z" transform="translate(-13 -17)"/><path class="a" d="M57.1,62.447a1,1,0,0,0,1.79,0L62.618,55H53.382Z" transform="translate(-13 -17)"/><path class="a" d="M21,62.414V55H13.586Z" transform="translate(-13 -17)"/><path class="a" d="M46,17H16a3,3,0,0,0-3,3V53h9a1,1,0,0,1,1,1v9H46a3,3,0,0,0,3-3V20A3,3,0,0,0,46,17ZM42,57H30.083a1,1,0,0,1,0-2H42a1,1,0,0,1,0,2Zm0-8H20a1,1,0,0,1,0-2H42a1,1,0,0,1,0,2Zm0-8H20a1,1,0,0,1,0-2H42a1,1,0,0,1,0,2Zm0-8H20a1,1,0,0,1,0-2H42a1,1,0,0,1,0,2Zm0-8H20a1,1,0,0,1,0-2H42a1,1,0,0,1,0,2Z" transform="translate(-13 -17)"/></g><path class="b" d="M40,9H35V8a5,5,0,0,0-4.158-4.915A2.993,2.993,0,0,0,28,1H16a2.993,2.993,0,0,0-2.842,2.085A5,5,0,0,0,9,8V9H4a3,3,0,0,0-3,3V36a3,3,0,0,0,3,3H40a3,3,0,0,0,3-3V12A3,3,0,0,0,40,9ZM16,3H28a1,1,0,0,1,0,2H16a1,1,0,0,1,0-2ZM11,8a3,3,0,0,1,2.22-2.884A3,3,0,0,0,16,7H28a3,3,0,0,0,2.78-1.884A3,3,0,0,1,33,8V9H11ZM4,11H40a1,1,0,0,1,1,1v1.764L35.658,24.447a1,1,0,0,1-.894.553H25V24a3,3,0,0,0-2-2.816V20a1,1,0,1,0-2,0v1.184A3,3,0,0,0,19,24v1H9.236a.994.994,0,0,1-.894-.553L3,13.764V12a1,1,0,0,1,1-1ZM22,29a1,1,0,0,1-1-1V24a1,1,0,0,1,2,0v4A1,1,0,0,1,22,29Zm18,8H4a1,1,0,0,1-1-1V18.236l3.553,7.106A2.983,2.983,0,0,0,9.236,27H19v1a3,3,0,0,0,2,2.816V32a1,1,0,0,0,2,0V30.816A3,3,0,0,0,25,28V27h9.764a2.983,2.983,0,0,0,2.683-1.658L41,18.236V36A1,1,0,0,1,40,37Z" transform="translate(-1 -1)"/></svg>