<svg xmlns="http://www.w3.org/2000/svg" width="13.366" height="17.822" viewBox="0 0 13.366 17.822">
  <g id="Icon-reject" transform="translate(-9 -7)">
    <path id="Icon_awesome-clipboard-check" data-name="Icon awesome-clipboard-check" d="M11.7,2.228H8.911a2.228,2.228,0,0,0-4.455,0H1.671A1.671,1.671,0,0,0,0,3.9V16.151a1.671,1.671,0,0,0,1.671,1.671H11.7a1.671,1.671,0,0,0,1.671-1.671V3.9A1.671,1.671,0,0,0,11.7,2.228ZM6.683,1.392a.835.835,0,1,1-.835.835A.833.833,0,0,1,6.683,1.392Z" transform="translate(9 7)" fill="#d7373f"/>
    <g id="Icon_ionic-ios-close-circle-outline" data-name="Icon ionic-ios-close-circle-outline" transform="translate(6.372 8.883)">
      <path id="Caminho_37357" data-name="Caminho 37357" d="M19.043,18.07,16.778,15.8l2.265-2.265-.971-.971-2.265,2.265-2.265-2.265-.971.971L14.836,15.8,12.571,18.07l.971.971,2.265-2.265,2.265,2.265Z" transform="translate(-6.531 -6.528)" fill="#fff"/>
    </g>
  </g>
</svg>
