<svg xmlns="http://www.w3.org/2000/svg" width="16" height="16" viewBox="0 0 16 16">
  <path id="Icon_ionic-ios-paper" data-name="Icon ionic-ios-paper" d="M5.173,3.481V15.865a.54.54,0,0,1-.538.538h0a.54.54,0,0,1-.538-.538V4.712H3.481A1.229,1.229,0,0,0,2.25,5.942V17.019A1.229,1.229,0,0,0,3.481,18.25H17.062a1.189,1.189,0,0,0,1.188-1.188V3.481A1.229,1.229,0,0,0,17.019,2.25L6.327,2.327A1.1,1.1,0,0,0,5.173,3.481ZM7.712,4.712h3.231a.54.54,0,0,1,.538.538h0a.54.54,0,0,1-.538.538H7.712a.54.54,0,0,1-.538-.538h0A.54.54,0,0,1,7.712,4.712Zm0,6.154H13.4a.54.54,0,0,1,.538.538h0a.54.54,0,0,1-.538.538H7.712a.54.54,0,0,1-.538-.538h0A.54.54,0,0,1,7.712,10.865Zm7.538,4.154H7.712a.54.54,0,0,1-.538-.538h0a.54.54,0,0,1,.538-.538H15.25a.54.54,0,0,1,.538.538h0A.54.54,0,0,1,15.25,15.019Zm0-6.154H7.712a.54.54,0,0,1-.538-.538h0a.54.54,0,0,1,.538-.538H15.25a.54.54,0,0,1,.538.538h0A.54.54,0,0,1,15.25,8.865Z" transform="translate(-2.25 -2.25)" fill="#474747"/>
</svg>
