<svg xmlns="http://www.w3.org/2000/svg" width="17.755" height="13.245" viewBox="0 0 17.755 13.245">
  <path id="Icon_metro-printer" data-name="Icon metro-printer" d="M7.009,3.856h8.877V6.075H7.009V3.856ZM19.216,7.185H3.68a1.113,1.113,0,0,0-1.11,1.11v5.548a1.113,1.113,0,0,0,1.11,1.11H7.009V17.1h8.877V14.953h3.329a1.113,1.113,0,0,0,1.11-1.11V8.295a1.113,1.113,0,0,0-1.11-1.11ZM4.79,10.514A1.11,1.11,0,1,1,5.9,9.4a1.11,1.11,0,0,1-1.11,1.11Zm9.987,5.477H8.119V12.734h6.658Z" transform="translate(-2.571 -3.856)"/>
</svg>
