<svg id="share_icon" data-name="share icon" xmlns="http://www.w3.org/2000/svg" width="18" height="18" viewBox="0 0 18 18">
  <rect id="Frame" width="18" height="18" fill="#323232" opacity="0"/>
  <path id="Shape" d="M16.5,5h-3a.5.5,0,0,0-.5.5v1a.5.5,0,0,0,.5.5H15v8H3V7H4.5A.5.5,0,0,0,5,6.5v-1A.5.5,0,0,0,4.5,5h-3a.5.5,0,0,0-.5.5v11a.5.5,0,0,0,.5.5h15a.5.5,0,0,0,.5-.5V5.5A.5.5,0,0,0,16.5,5Z" fill="#323232"/>
  <path id="Shape-2" data-name="Shape" d="M5.4,4H8V9.5a.5.5,0,0,0,.5.5h1a.5.5,0,0,0,.5-.5V4h2.6a.4.4,0,0,0,.4-.4.389.389,0,0,0-.1-.264L9.175.072a.249.249,0,0,0-.35,0L5.1,3.334A.389.389,0,0,0,5,3.6.4.4,0,0,0,5.4,4Z" fill="#323232"/>
</svg>
