<svg xmlns="http://www.w3.org/2000/svg" width="126.737" height="116.34" viewBox="0 0 126.737 116.34"><defs><style>.a{fill:#f0b600;}</style></defs><g transform="translate(0 -21)"><path class="a" d="M123.747,102.58l-38.7-68.895a24.861,24.861,0,0,0-43.351,0L2.99,102.58A23.333,23.333,0,0,0,23.333,137.34H103.4a23.333,23.333,0,0,0,20.343-34.761ZM103.4,129.914H23.333a15.907,15.907,0,0,1-13.868-23.7l38.7-68.895a17.435,17.435,0,0,1,30.4,0l38.7,68.895a15.907,15.907,0,0,1-13.868,23.7Z"/><path class="a" d="M222.139,91A11.152,11.152,0,0,0,211,102.139v32.179a11.139,11.139,0,0,0,22.278,0V102.139A11.152,11.152,0,0,0,222.139,91Zm3.713,43.318a3.713,3.713,0,0,1-7.426,0V102.139a3.713,3.713,0,1,1,7.426,0Z" transform="translate(-158.771 -52.673)"/><path class="a" d="M222.139,341a11.139,11.139,0,1,0,11.139,11.139A11.152,11.152,0,0,0,222.139,341Zm0,14.852a3.713,3.713,0,1,1,3.713-3.713A3.717,3.717,0,0,1,222.139,355.852Z" transform="translate(-158.771 -240.79)"/></g></svg>